<svg width="35" height="35" viewBox="0 0 35 35" fill="none" xmlns="http://www.w3.org/2000/svg">
<path d="M17.5 16.9082C15.0938 16.9082 13.125 16.1192 11.5938 14.5411C10.0625 12.963 9.29688 10.934 9.29688 8.45411C9.29688 5.97424 10.0625 3.94525 11.5938 2.36715C13.125 0.78905 15.0938 0 17.5 0C19.9062 0 21.875 0.78905 23.4062 2.36715C24.9375 3.94525 25.7031 5.97424 25.7031 8.45411C25.7031 10.934 24.9375 12.963 23.4062 14.5411C21.875 16.1192 19.9062 16.9082 17.5 16.9082ZM0 35V29.7021C0 28.2743 0.346354 27.0531 1.03906 26.0386C1.73177 25.0242 2.625 24.2539 3.71875 23.7279C6.16146 22.6006 8.50391 21.7552 10.7461 21.1916C12.9883 20.628 15.2396 20.3462 17.5 20.3462C19.7604 20.3462 22.0026 20.6374 24.2266 21.2198C26.4505 21.8022 28.7839 22.6382 31.2266 23.7279C32.3568 24.2539 33.2682 25.0242 33.9609 26.0386C34.6536 27.0531 35 28.2743 35 29.7021V35H0ZM3.28125 31.6184H31.7188V29.7021C31.7188 29.1009 31.5456 28.5279 31.1992 27.9831C30.8529 27.4383 30.4245 27.0344 29.9141 26.7713C27.5807 25.6065 25.4479 24.8081 23.5156 24.376C21.5833 23.9439 19.5781 23.7279 17.5 23.7279C15.4219 23.7279 13.3984 23.9439 11.4297 24.376C9.46094 24.8081 7.32813 25.6065 5.03125 26.7713C4.52083 27.0344 4.10156 27.4383 3.77344 27.9831C3.44531 28.5279 3.28125 29.1009 3.28125 29.7021V31.6184ZM17.5 13.5266C18.9219 13.5266 20.0977 13.0475 21.0273 12.0894C21.957 11.1312 22.4219 9.91949 22.4219 8.45411C22.4219 6.98873 21.957 5.77697 21.0273 4.81884C20.0977 3.86071 18.9219 3.38164 17.5 3.38164C16.0781 3.38164 14.9023 3.86071 13.9727 4.81884C13.043 5.77697 12.5781 6.98873 12.5781 8.45411C12.5781 9.91949 13.043 11.1312 13.9727 12.0894C14.9023 13.0475 16.0781 13.5266 17.5 13.5266Z" fill="#F6F5F5"/>
</svg>
