<svg width="30" height="30" viewBox="0 0 30 30" fill="none" xmlns="http://www.w3.org/2000/svg">
<path d="M2.45566 27.5443H4.25648L22.3874 9.41337L20.5866 7.61255L2.45566 25.7435V27.5443ZM27.5853 7.65348L22.3465 2.41473L24.0655 0.695771C24.5293 0.231924 25.1023 0 25.7844 0C26.4666 0 27.0396 0.231924 27.5034 0.695771L29.3042 2.49659C29.7681 2.96044 30 3.53342 30 4.21555C30 4.89768 29.7681 5.47067 29.3042 5.93452L27.5853 7.65348ZM25.8663 9.37244L5.23874 30H0V24.7613L20.6276 4.1337L25.8663 9.37244ZM21.487 8.51296L20.5866 7.61255L22.3874 9.41337L21.487 8.51296Z" fill="url(#paint0_linear_224_295)"/>
<defs>
<linearGradient id="paint0_linear_224_295" x1="15" y1="0" x2="15" y2="30" gradientUnits="userSpaceOnUse">
<stop stop-color="#0077C0"/>
<stop offset="1" stop-color="#003A7A"/>
</linearGradient>
</defs>
</svg>
