<svg width="70" height="70" viewBox="0 0 70 70" fill="none" xmlns="http://www.w3.org/2000/svg">
<path d="M30.4306 57.05L17.0139 45.0625L21.0972 41.3875L30.4306 49.6125L48.3194 33.5125L52.4028 37.275L30.4306 57.05ZM5.83333 70C4.27778 70 2.91667 69.475 1.75 68.425C0.583333 67.375 0 66.15 0 64.75V10.5C0 9.1 0.583333 7.875 1.75 6.825C2.91667 5.775 4.27778 5.25 5.83333 5.25H12.1528V0H18.4722V5.25H51.5278V0H57.8472V5.25H64.1667C65.7222 5.25 67.0833 5.775 68.25 6.825C69.4167 7.875 70 9.1 70 10.5V64.75C70 66.15 69.4167 67.375 68.25 68.425C67.0833 69.475 65.7222 70 64.1667 70H5.83333ZM5.83333 64.75H64.1667V27.125H5.83333V64.75ZM5.83333 21.875H64.1667V10.5H5.83333V21.875ZM5.83333 21.875V10.5V21.875Z" fill="url(#paint0_linear_216_233)"/>
<defs>
<linearGradient id="paint0_linear_216_233" x1="35" y1="0" x2="35" y2="70" gradientUnits="userSpaceOnUse">
<stop stop-color="#0077C0"/>
<stop offset="1" stop-color="#003A7A"/>
</linearGradient>
</defs>
</svg>
