<svg width="35" height="35" viewBox="0 0 35 35" fill="none" xmlns="http://www.w3.org/2000/svg">
<path d="M15.2153 28.525L8.50694 22.5312L10.5486 20.6938L15.2153 24.8062L24.1597 16.7563L26.2014 18.6375L15.2153 28.525ZM2.91667 35C2.13889 35 1.45833 34.7375 0.875 34.2125C0.291667 33.6875 0 33.075 0 32.375V5.25C0 4.55 0.291667 3.9375 0.875 3.4125C1.45833 2.8875 2.13889 2.625 2.91667 2.625H6.07639V0H9.23611V2.625H25.7639V0H28.9236V2.625H32.0833C32.8611 2.625 33.5417 2.8875 34.125 3.4125C34.7083 3.9375 35 4.55 35 5.25V32.375C35 33.075 34.7083 33.6875 34.125 34.2125C33.5417 34.7375 32.8611 35 32.0833 35H2.91667ZM2.91667 32.375H32.0833V13.5625H2.91667V32.375ZM2.91667 10.9375H32.0833V5.25H2.91667V10.9375ZM2.91667 10.9375V5.25V10.9375Z" fill="#F6F5F5"/>
</svg>
