<svg width="35" height="35" viewBox="0 0 35 35" fill="none" xmlns="http://www.w3.org/2000/svg">
<path d="M17.5 29.1666C17.0139 29.1666 16.6007 28.9964 16.2604 28.6562C15.9201 28.3159 15.75 27.9027 15.75 27.4166C15.75 26.9305 15.9201 26.5173 16.2604 26.177C16.6007 25.8367 17.0139 25.6666 17.5 25.6666C17.9861 25.6666 18.3993 25.8367 18.7396 26.177C19.0799 26.5173 19.25 26.9305 19.25 27.4166C19.25 27.9027 19.0799 28.3159 18.7396 28.6562C18.3993 28.9964 17.9861 29.1666 17.5 29.1666ZM17.5 19.2499C17.0139 19.2499 16.6007 19.0798 16.2604 18.7395C15.9201 18.3992 15.75 17.986 15.75 17.4999C15.75 17.0138 15.9201 16.6006 16.2604 16.2603C16.6007 15.9201 17.0139 15.7499 17.5 15.7499C17.9861 15.7499 18.3993 15.9201 18.7396 16.2603C19.0799 16.6006 19.25 17.0138 19.25 17.4999C19.25 17.986 19.0799 18.3992 18.7396 18.7395C18.3993 19.0798 17.9861 19.2499 17.5 19.2499ZM17.5 9.33325C17.0139 9.33325 16.6007 9.16311 16.2604 8.82284C15.9201 8.48256 15.75 8.06936 15.75 7.58325C15.75 7.09714 15.9201 6.68395 16.2604 6.34367C16.6007 6.00339 17.0139 5.83325 17.5 5.83325C17.9861 5.83325 18.3993 6.00339 18.7396 6.34367C19.0799 6.68395 19.25 7.09714 19.25 7.58325C19.25 8.06936 19.0799 8.48256 18.7396 8.82284C18.3993 9.16311 17.9861 9.33325 17.5 9.33325Z" fill="url(#paint0_linear_231_302)"/>
<defs>
<linearGradient id="paint0_linear_231_302" x1="17.5" y1="5.83325" x2="17.5" y2="29.1666" gradientUnits="userSpaceOnUse">
<stop stop-color="#0077C0"/>
<stop offset="1" stop-color="#003A7A"/>
</linearGradient>
</defs>
</svg>
